<?xml version="1.0" encoding="UTF-8" standalone="no"?>
<svg
   id="Ebene_1"
   data-name="Ebene 1"
   version="1.1"
   viewBox="0 0 400.00001 399.99999"
   sodipodi:docname="MILA_Logo_neg_Mgbereich_3.svg"
   width="400"
   height="400"
   inkscape:version="1.3.2 (091e20e, 2023-11-25, custom)"
   xmlns:inkscape="http://www.inkscape.org/namespaces/inkscape"
   xmlns:sodipodi="http://sodipodi.sourceforge.net/DTD/sodipodi-0.dtd"
   xmlns="http://www.w3.org/2000/svg"
   xmlns:svg="http://www.w3.org/2000/svg">
  <sodipodi:namedview
     id="namedview20"
     pagecolor="#ffffff"
     bordercolor="#000000"
     borderopacity="0.25"
     inkscape:showpageshadow="2"
     inkscape:pageopacity="0.0"
     inkscape:pagecheckerboard="0"
     inkscape:deskcolor="#d1d1d1"
     inkscape:zoom="1.9703913"
     inkscape:cx="214.67817"
     inkscape:cy="149.71645"
     inkscape:window-width="1278"
     inkscape:window-height="1360"
     inkscape:window-x="-7"
     inkscape:window-y="0"
     inkscape:window-maximized="0"
     inkscape:current-layer="Ebene_1" />
  <defs
     id="defs1">
    <style
       id="style1">
      .cls-1 {
        font-family: MyriadPro-Regular, 'Myriad Pro';
        font-size: 137.4px;
      }

      .cls-1, .cls-2 {
        fill: #fff;
      }

      .cls-3 {
        fill: #00867a;
      }

      .cls-3, .cls-2 {
        stroke-width: 0px;
      }
    </style>
  </defs>
  <text
     class="cls-1"
     id="text1"
     x="491.89999"
     y="317.60001"><tspan
       x="491.89999"
       y="317.60001"
       id="tspan1" /></text>
  <text
     class="cls-1"
     id="text2"
     x="482.89999"
     y="292.5"><tspan
       x="482.89999"
       y="292.5"
       id="tspan2" /></text>
  <g
     id="g3"
     transform="translate(-97.91747,-221.42012)">
    <polygon
       class="cls-2"
       points="223.6,285.5 226.1,285.5 226.9,324.7 228.8,372.8 253.6,372.8 245.5,264.9 206.2,264.9 202.3,300.9 198.5,349.4 194.6,300.5 190.9,264.9 151.6,264.9 144.2,372.8 168.9,372.8 170.4,324.4 171.1,285.5 173.4,285.5 177.7,322.3 183.6,372.8 213.4,372.8 219.2,323.4 "
       id="polygon2" />
    <path
       class="cls-2"
       d="m 274.4,264.9 v 107.9 h 25.4 V 264.9 Z m 49.8,0 v 107.9 h 47 v -22.4 h -21.6 v -85.5 z m 62.3,107.9 h 25.4 l 1.6,-21.6 H 426 l 1.6,21.6 H 453 L 441,264.9 h -42.7 l -12,107.9 z M 415,331 l 2.9,-45.8 h 4 l 2.9,45.8 z"
       id="path2" />
    <path
       class="cls-2"
       d="m 103.85887,226.85887 v 388.6 h 388.6 v -388.6 z m 374.9,374.8 h -361.2 v -361.1 h 361.2 v 361.2 z"
       id="path3" />
  </g>
</svg>
