<?xml version="1.0" encoding="UTF-8" standalone="no"?>
<svg
   id="Ebene_1"
   data-name="Ebene 1"
   version="1.1"
   viewBox="0 0 500.00001 549.99999"
   sodipodi:docname="MILA_Logo_neg_Mgbereich_2.svg"
   width="500"
   height="550"
   inkscape:version="1.3.2 (091e20e, 2023-11-25, custom)"
   xmlns:inkscape="http://www.inkscape.org/namespaces/inkscape"
   xmlns:sodipodi="http://sodipodi.sourceforge.net/DTD/sodipodi-0.dtd"
   xmlns="http://www.w3.org/2000/svg"
   xmlns:svg="http://www.w3.org/2000/svg">
  <sodipodi:namedview
     id="namedview20"
     pagecolor="#ffffff"
     bordercolor="#000000"
     borderopacity="0.25"
     inkscape:showpageshadow="2"
     inkscape:pageopacity="0.0"
     inkscape:pagecheckerboard="0"
     inkscape:deskcolor="#d1d1d1"
     inkscape:zoom="0.69663854"
     inkscape:cx="203.83598"
     inkscape:cy="21.53197"
     inkscape:window-width="1278"
     inkscape:window-height="1360"
     inkscape:window-x="-7"
     inkscape:window-y="0"
     inkscape:window-maximized="0"
     inkscape:current-layer="Ebene_1" />
  <defs
     id="defs1">
    <style
       id="style1">
      .cls-1 {
        font-family: MyriadPro-Regular, 'Myriad Pro';
        font-size: 137.4px;
      }

      .cls-1, .cls-2 {
        fill: #fff;
      }

      .cls-3 {
        fill: #00867a;
      }

      .cls-3, .cls-2 {
        stroke-width: 0px;
      }
    </style>
  </defs>
  <text
     class="cls-1"
     id="text1"
     x="491.89999"
     y="317.60001"><tspan
       x="491.89999"
       y="317.60001"
       id="tspan1" /></text>
  <text
     class="cls-1"
     id="text2"
     x="482.89999"
     y="292.5"><tspan
       x="482.89999"
       y="292.5"
       id="tspan2" /></text>
  <g
     id="g3"
     transform="translate(-47.676207,-207.57298)">
    <polygon
       class="cls-2"
       points="168.9,372.8 170.4,324.4 171.1,285.5 173.4,285.5 177.7,322.3 183.6,372.8 213.4,372.8 219.2,323.4 223.6,285.5 226.1,285.5 226.9,324.7 228.8,372.8 253.6,372.8 245.5,264.9 206.2,264.9 202.3,300.9 198.5,349.4 194.6,300.5 190.9,264.9 151.6,264.9 144.2,372.8 "
       id="polygon2" />
    <path
       class="cls-2"
       d="m 274.4,264.9 v 107.9 h 25.4 V 264.9 Z m 49.8,0 v 107.9 h 47 v -22.4 h -21.6 v -85.5 z m 62.3,107.9 h 25.4 l 1.6,-21.6 H 426 l 1.6,21.6 H 453 L 441,264.9 h -42.7 l -12,107.9 z M 415,331 l 2.9,-45.8 h 4 l 2.9,45.8 z"
       id="path2" />
    <path
       class="cls-2"
       d="m 103.85887,226.85887 v 388.6 h 388.6 v -388.6 z m 374.9,374.8 h -361.2 v -361.1 h 361.2 v 361.2 z"
       id="path3" />
  </g>
  <g
     id="g20"
     transform="translate(-47.317341,-207.21411)">
    <path
       class="cls-2"
       d="M 112.3,727.3 H 100.4 L 99.5,704.2 99.1,685.4 H 97.9 L 95.8,703.6 93,727.3 H 78.7 l -2.8,-24.2 -2,-17.7 h -1.1 l -0.3,18.7 -0.7,23.2 H 59.9 l 3.6,-51.8 h 18.9 l 1.8,17.1 1.8,23.5 1.8,-23.3 1.8,-17.3 h 18.9 l 3.9,51.8 z"
       id="path4" />
    <path
       class="cls-2"
       d="m 117.1,680.8 c 0,-4 2.6,-6.2 6,-6.2 3.4,0 6,2.2 6,6.2 0,4 -2.6,6.3 -6,6.3 -3.4,0 -6,-2.2 -6,-6.3 z m 11.5,9.9 v 36.6 h -11.2 v -36.6 z"
       id="path5" />
    <path
       class="cls-2"
       d="m 152.6,718.7 v 8.6 L 146,728 c -7.1,0 -10.6,-3.1 -10.6,-11.2 v -17.5 h -3.6 v -8.6 h 3.8 l 1.8,-9.9 h 9.2 v 9.9 h 6 v 8.6 h -6 v 14.8 c 0,3.6 0.3,4.7 3.4,4.7 h 2.6 z"
       id="path6" />
    <path
       class="cls-2"
       d="m 169.1,716.3 -1.2,2.5 v 0.3 h 4.5 c 8.2,0 12.1,3.1 12.1,9.5 0,6.4 -4.7,11.9 -15.2,11.9 -10.5,0 -14.2,-3.5 -14.2,-9.8 0,-6.3 2.1,-6.5 3.8,-8.2 l -1.2,-2.4 3.2,-5.7 c -3.2,-2 -4.6,-5.7 -4.6,-11.3 0,-9.2 3.8,-13.4 13.3,-13.4 9.5,0 5.4,0.4 7.3,1.3 l 4.7,-2.9 4.8,6.4 -3.9,3.9 c 0.3,1.4 0.5,3 0.5,4.8 0,9.2 -3.8,13.2 -13.3,13.2 h -0.6 z m 0.3,16 c 2.8,0 4.8,-0.7 4.8,-2.8 0,-2.1 -2,-2.6 -4.8,-2.6 h -3.6 c -0.5,0.8 -0.8,1.6 -0.8,2.8 0,1.9 1.7,2.6 4.4,2.6 z m 2.9,-29.2 c 0,-5 -0.3,-6 -2.6,-6 -2.3,0 -2.6,1.1 -2.6,6 0,4.9 0.3,6.1 2.6,6.1 2.3,0 2.6,-1.2 2.6,-6.1 z"
       id="path7" />
    <path
       class="cls-2"
       d="m 204.5,718.7 v 8.6 l -5.4,0.7 c -6.6,0 -10.1,-1.7 -10.1,-11.2 v -41.2 h 11.2 v 39.9 c 0,2.6 0.3,3.3 2.6,3.3 h 1.7 z"
       id="path8" />
    <path
       class="cls-2"
       d="m 208,680.8 c 0,-4 2.6,-6.2 6,-6.2 3.4,0 6,2.2 6,6.2 0,4 -2.6,6.3 -6,6.3 -3.4,0 -6,-2.2 -6,-6.3 z m 11.5,9.9 v 36.6 h -11.2 v -36.6 z"
       id="path9" />
    <path
       class="cls-2"
       d="m 235.8,713.5 v 1 c 0,3.3 1,4.6 4.9,4.6 h 9.4 v 8.2 l -9.4,0.7 c -11.9,0 -15.8,-4.3 -15.8,-13.5 V 703 c 0,-7.9 3.2,-13.2 13.1,-13.2 9.9,0 12.8,4.6 12.8,15.8 l -0.7,7.9 h -14.4 z m 0,-11.9 v 4.9 h 5 v -4.9 c 0,-2.3 -0.3,-3.8 -2.5,-3.8 -2.2,0 -2.5,1.5 -2.5,3.8 z"
       id="path10" />
    <path
       class="cls-2"
       d="m 283.2,727.3 -9.4,0.7 -0.9,-3.2 c -1.4,1.6 -3.3,3.6 -7.5,3.6 -6.9,0 -10,-5.3 -10,-14.2 v -10.9 c 0,-9.6 4.8,-13.5 13.1,-13.5 8.3,0 2.3,0.1 2.7,0.3 0,-1.2 -0.1,-3 -0.1,-5.5 v -8.9 h 11.2 v 42 l 0.8,9.8 z m -11.9,-28.5 c -0.5,-0.1 -1.2,-0.3 -1.8,-0.3 -2.4,0 -2.8,1.7 -2.8,4.6 v 10.7 c 0,3.6 0.7,5.3 2.3,5.3 1.6,0 1.8,-0.5 2.3,-1 z"
       id="path11" />
    <path
       class="cls-2"
       d="m 298.7,713.5 v 1 c 0,3.3 1,4.6 4.9,4.6 h 9.4 v 8.2 l -9.4,0.7 c -11.9,0 -15.8,-4.3 -15.8,-13.5 V 703 c 0,-7.9 3.2,-13.2 13.1,-13.2 9.9,0 12.8,4.6 12.8,15.8 l -0.7,7.9 h -14.4 z m 0,-11.9 v 4.9 h 5 v -4.9 c 0,-2.3 -0.3,-3.8 -2.5,-3.8 -2.2,0 -2.5,1.5 -2.5,3.8 z"
       id="path12" />
    <path
       class="cls-2"
       d="m 336.1,700.5 c -2.1,0 -4.4,0.6 -5.7,1.6 v 25.2 h -11.3 v -25.9 l -0.8,-10.4 9.4,-0.9 0.9,3.4 c 1.2,-1.4 2.6,-3.4 7.1,-3.4 4.5,0 2.6,0.3 3.5,0.5 l -0.8,10.1 c -0.9,-0.2 -1.5,-0.3 -2.3,-0.3 z"
       id="path13" />
    <path
       class="cls-2"
       d="m 342.7,675.5 h 11.2 v 10.6 c 0,2.8 -0.1,4.4 -0.3,6.3 1.2,-1.1 3.2,-2.3 6.4,-2.3 6.6,0 9.6,5 9.6,13.9 v 9.9 c 0,9.6 -4.8,14.5 -13.8,14.5 -9,0 -9.5,-1 -13.1,-2.3 v -50.5 z m 15.6,27.7 c 0,-2.6 -0.5,-4 -2.1,-4 -1.6,0 -1.8,0.6 -2.4,1 v 18.9 c 0.9,0.3 1.5,0.4 2,0.4 2.4,0 2.4,-2.5 2.4,-5.8 v -10.6 z"
       id="path14" />
    <path
       class="cls-2"
       d="m 385.1,713.5 v 1 c 0,3.3 1,4.6 4.9,4.6 h 9.4 v 8.2 L 390,728 c -11.9,0 -15.8,-4.3 -15.8,-13.5 V 703 c 0,-7.9 3.2,-13.2 13.1,-13.2 9.9,0 12.8,4.6 12.8,15.8 l -0.7,7.9 H 385 Z m 0,-11.9 v 4.9 h 5 v -4.9 c 0,-2.3 -0.3,-3.8 -2.5,-3.8 -2.2,0 -2.5,1.5 -2.5,3.8 z"
       id="path15" />
    <path
       class="cls-2"
       d="m 422.5,700.5 c -2.1,0 -4.4,0.6 -5.7,1.6 v 25.2 h -11.3 v -25.9 l -0.8,-10.4 9.4,-0.9 0.9,3.4 c 1.2,-1.4 2.6,-3.4 7.1,-3.4 4.5,0 2.6,0.3 3.5,0.5 l -0.8,10.1 c -0.9,-0.2 -1.5,-0.3 -2.3,-0.3 z"
       id="path16" />
    <path
       class="cls-2"
       d="m 439.1,713.5 v 1 c 0,3.3 1,4.6 4.9,4.6 h 9.4 v 8.2 L 444,728 c -11.9,0 -15.8,-4.3 -15.8,-13.5 V 703 c 0,-7.9 3.2,-13.2 13.1,-13.2 9.9,0 12.8,4.6 12.8,15.8 l -0.7,7.9 H 439 Z m 0,-11.9 v 4.9 h 5 v -4.9 c 0,-2.3 -0.3,-3.8 -2.5,-3.8 -2.2,0 -2.5,1.5 -2.5,3.8 z"
       id="path17" />
    <path
       class="cls-2"
       d="m 459.3,680.8 c 0,-4 2.6,-6.2 6,-6.2 3.4,0 6,2.2 6,6.2 0,4 -2.6,6.3 -6,6.3 -3.4,0 -6,-2.2 -6,-6.3 z m 11.5,9.9 v 36.6 h -11.2 v -36.6 z"
       id="path18" />
    <path
       class="cls-2"
       d="m 501.4,702.2 -0.7,9.2 h -9.6 v -9.2 c 0,-2.3 0,-3.8 -1.8,-3.8 -1.8,0 -1.8,1.5 -1.8,3.8 v 11.2 c 0,4 1.1,5.3 4.8,5.3 h 8.5 v 8.6 l -7.2,0.7 c -12.3,0 -17.3,-3 -17.3,-14.2 v -11.5 c 0,-7.9 3.6,-12.5 13.1,-12.5 9.5,0 12.1,4.6 12.1,12.5 z"
       id="path19" />
    <path
       class="cls-2"
       d="m 533.9,701.2 v 26.1 h -11.3 v -24.7 c 0,-2 -0.8,-2.6 -1.9,-2.6 -1.1,0 -2,0.5 -2.6,1 v 26.4 h -11.3 v -51.8 h 11.3 v 9.2 c 0,3 -0.1,5.5 -0.4,7.9 1.7,-1.3 3.6,-2.6 7.6,-2.6 5.9,0 8.6,3.6 8.6,11.2 z"
       id="path20" />
  </g>
</svg>
